# xmcd
#
# Track frame offsets: 
#        150
#        19605
#        37649
#        56987
#        71527
#        90423
#        112607
#        118189
#        135909
#        156169
#        178483
#        200274
#        221549
#
# Disc length: 3181 seconds
#
# Revision: 0
# Processed by: cddbd v1.5.2PL0 Copyright (c) Steve Scherf et al.
# Submitted via: ExactAudioCopy v1.0b1
#
DISCID=a70c6b0d
DTITLE=Exxasens - Beyond The Universe
DYEAR=2009
DGENRE=Electronic
TTITLE0=Sky In Red
TTITLE1=Signals From The Outer Space
TTITLE2=Lost In Space
TTITLE3=Por Que Me Llamas A Esta Horas
TTITLE4=Polaris
TTITLE5=Stars In The Desert
TTITLE6=Gray
TTITLE7=Absolute Infinite
TTITLE8=A Singular Deploy
TTITLE9=Copernicus
TTITLE10=Spiders On The Moon
TTITLE11=Boolean
TTITLE12=Stellar
EXTD=
EXTT0=
EXTT1=
EXTT2=
EXTT3=
EXTT4=
EXTT5=
EXTT6=
EXTT7=
EXTT8=
EXTT9=
EXTT10=
EXTT11=
EXTT12=
PLAYORDER=
